<svg xmlns="http://www.w3.org/2000/svg" viewBox="0 0 17.998 18.035">
  <path id="copy" d="M10.969,18.035H4.219A4.225,4.225,0,0,1,0,13.816V8.543A4.225,4.225,0,0,1,4.219,4.324h6.75a4.225,4.225,0,0,1,4.219,4.219v5.273a4.225,4.225,0,0,1-4.219,4.219ZM4.219,5.73a2.8,2.8,0,0,0-1.988.824,2.839,2.839,0,0,0-.824,1.988v5.273a2.818,2.818,0,0,0,2.812,2.813h6.748a2.816,2.816,0,0,0,2.812-2.813V8.543a2.816,2.816,0,0,0-2.81-2.808ZM17.3,11.987a.7.7,0,0,1-.5-.206.707.707,0,0,1-.205-.5l0-7.065a2.816,2.816,0,0,0-2.815-2.813H7.031A2.816,2.816,0,0,0,4.72,2.616a.7.7,0,0,1-1.155-.8A4.224,4.224,0,0,1,7.031,0h6.748A4.225,4.225,0,0,1,18,4.219v7.065a.7.7,0,0,1-.7.7Z" fill="#bbc5d5"/>
</svg>
