<svg id="search" xmlns="http://www.w3.org/2000/svg" viewBox="0 0 24.97 24.97">
  <path id="Path_34" data-name="Path 34" d="M5.534,146.614l-.869,3.245-3.177.067A12.507,12.507,0,0,1,1.4,138.268h0l2.828.519L5.464,141.6a7.451,7.451,0,0,0,.07,5.017Z" transform="translate(0 -131.525)" fill="#fbbb00"/>
  <path id="Path_35" data-name="Path 35" d="M273.62,208.176a12.48,12.48,0,0,1-4.451,12.068h0l-3.562-.182-.5-3.147a7.441,7.441,0,0,0,3.2-3.8h-6.676v-4.939H273.62Z" transform="translate(-248.869 -198.024)" fill="#518ef8"/>
  <path id="Path_36" data-name="Path 36" d="M49.321,316.54h0a12.489,12.489,0,0,1-18.813-3.819l4.046-3.312a7.425,7.425,0,0,0,10.7,3.8Z" transform="translate(-29.021 -294.32)" fill="#28b446"/>
  <path id="Path_37" data-name="Path 37" d="M47.682,2.874,43.637,6.185a7.424,7.424,0,0,0-10.945,3.887l-4.067-3.33h0A12.487,12.487,0,0,1,47.682,2.874Z" transform="translate(-27.228)" fill="#f14336"/>
</svg>
