<svg xmlns="http://www.w3.org/2000/svg" viewBox="0 0 30 30">
  <g id="Iconly_Bold_Image_2" data-name="Iconly/Bold/Image 2" transform="translate(0 0)" opacity="0.7">
    <g id="Image_2" data-name="Image 2">
      <path id="Image_2-2" data-name="Image 2" d="M8.456,30a9.962,9.962,0,0,1-1.623-.142c-.016,0-.032-.005-.047-.008a7.848,7.848,0,0,1-4.9-2.808c-.008,0-.011-.005-.016-.014a.08.08,0,0,0-.011-.015A9.3,9.3,0,0,1,0,21.153V8.832C0,3.549,3.4,0,8.456,0H21.531C26.6,0,30,3.549,30,8.832V21.153a3.457,3.457,0,0,1-.028.383c-.009.086-.019.174-.024.265,0,.051,0,.1-.005.153,0,.076,0,.154-.011.229a.807.807,0,0,1-.013.082.589.589,0,0,0-.015.085,10.063,10.063,0,0,1-.232,1.357c-.02.089-.045.178-.067.263l-.023.081a9.089,9.089,0,0,1-.431,1.211c-.031.07-.065.138-.1.207-.02.039-.038.076-.055.112a8.064,8.064,0,0,1-.61,1.046c-.046.065-.093.126-.14.184-.028.035-.055.07-.082.105a7.37,7.37,0,0,1-.77.872c-.055.053-.115.1-.173.149-.039.031-.08.063-.117.1a7.869,7.869,0,0,1-.911.691c-.07.043-.146.081-.219.117-.05.024-.1.049-.147.076a7.835,7.835,0,0,1-1.03.5,2.772,2.772,0,0,1-.279.082c-.063.018-.13.034-.193.054l-.113.035a7.793,7.793,0,0,1-.986.258,5.633,5.633,0,0,1-.63.062c-.095.007-.189.012-.282.02s-.2.02-.3.031a3.912,3.912,0,0,1-.481.039ZM2.094,8.832V21.153a7.993,7.993,0,0,0,.578,3.058l.537-.653c.844-1.03,2.417-2.944,2.429-2.957a5.424,5.424,0,0,1,3.968-2.213,4.065,4.065,0,0,1,1.575.331,9.683,9.683,0,0,1,1.515.841l.135.086a3.493,3.493,0,0,0,1.779.806c.036,0,.073,0,.111-.005a1.559,1.559,0,0,0,.616-.215A20.243,20.243,0,0,0,18.521,16.3c.085-.122.142-.2.161-.225a5.017,5.017,0,0,1,3.929-2.1,4.475,4.475,0,0,1,2.326.662c.292.174,2.3,1.578,2.971,2.147V8.832c0-4.095-2.5-6.739-6.376-6.739H8.456C4.591,2.093,2.094,4.737,2.094,8.832Zm4,1.658A3.606,3.606,0,0,1,6,9.7a3.751,3.751,0,0,1,7.5.069,3.742,3.742,0,0,1-7.412.718Z" transform="translate(0 0)" fill="#fff"/>
    </g>
  </g>
</svg>
