<?xml version="1.0" standalone="no"?>
<!DOCTYPE svg PUBLIC "-//W3C//DTD SVG 20010904//EN"
 "http://www.w3.org/TR/2001/REC-SVG-20010904/DTD/svg10.dtd">
<svg version="1.0" xmlns="http://www.w3.org/2000/svg" viewBox="0 0 512.000000 512.000000"
 preserveAspectRatio="xMidYMid meet">

<g transform="translate(0.000000,512.000000) scale(0.100000,-0.100000)"
fill="#ffffff" stroke="none">
<path d="M3135 4786 c-30 -13 -1313 -1428 -1383 -1525 -50 -69 -99 -171 -124
-258 l-23 -78 0 -965 c0 -1048 -3 -988 55 -1142 71 -190 267 -377 469 -449
141 -50 161 -51 1111 -47 787 3 891 5 940 20 214 64 368 172 475 333 84 127
93 160 285 1045 176 806 182 838 177 920 -14 217 -141 409 -335 501 -116 56
-148 59 -712 59 -480 0 -518 2 -556 19 -54 25 -88 79 -88 141 0 41 20 82 186
381 102 184 192 357 201 384 54 167 14 342 -108 473 -74 80 -145 115 -327 162
-165 43 -197 46 -243 26z"/>
<path d="M245 3511 c-90 -22 -172 -90 -215 -176 l-25 -50 0 -1365 0 -1365 23
-45 c35 -72 75 -114 144 -151 l63 -34 523 -3 522 -3 0 1601 0 1600 -502 -1
c-277 -1 -516 -4 -533 -8z"/>
</g>
</svg>
