<svg xmlns="http://www.w3.org/2000/svg" viewBox="0 0 14.918 14.918">
  <g id="Menu_icon" transform="translate(0.5 0.5)">
    <path id="Stroke_1" data-name="Stroke 1" d="M1.7,0H3.978a1.712,1.712,0,0,1,1.7,1.719V4.011a1.712,1.712,0,0,1-1.7,1.719H1.7A1.712,1.712,0,0,1,0,4.011V1.719A1.712,1.712,0,0,1,1.7,0Z" transform="translate(8.237 0)" fill="none" stroke="#fff" stroke-linecap="round" stroke-linejoin="round" stroke-miterlimit="10" stroke-width="1"/>
    <path id="Stroke_3" data-name="Stroke 3" d="M1.7,0H3.977a1.712,1.712,0,0,1,1.7,1.719V4.011a1.712,1.712,0,0,1-1.7,1.719H1.7A1.712,1.712,0,0,1,0,4.011V1.719A1.712,1.712,0,0,1,1.7,0Z" transform="translate(0 0)" fill="none" stroke="#fff" stroke-linecap="round" stroke-linejoin="round" stroke-miterlimit="10" stroke-width="1"/>
    <path id="Stroke_5" data-name="Stroke 5" d="M1.7,0H3.977a1.712,1.712,0,0,1,1.7,1.72V4.011a1.712,1.712,0,0,1-1.7,1.719H1.7A1.712,1.712,0,0,1,0,4.011V1.72A1.712,1.712,0,0,1,1.7,0Z" transform="translate(0 8.188)" fill="none" stroke="#fff" stroke-linecap="round" stroke-linejoin="round" stroke-miterlimit="10" stroke-width="1"/>
    <path id="Stroke_7" data-name="Stroke 7" d="M1.7,0H3.978a1.712,1.712,0,0,1,1.7,1.72V4.011a1.712,1.712,0,0,1-1.7,1.719H1.7A1.712,1.712,0,0,1,0,4.011V1.72A1.712,1.712,0,0,1,1.7,0Z" transform="translate(8.237 8.188)" fill="none" stroke="#fff" stroke-linecap="round" stroke-linejoin="round" stroke-miterlimit="10" stroke-width="1"/>
  </g>
</svg>
