<svg id="Star_icon" xmlns="http://www.w3.org/2000/svg" width="16.423" height="15.6" viewBox="0 0 16.423 15.6">
  <path id="Star" d="M13.07,9.7a.9.9,0,0,0-.262.8l.73,4.039a.887.887,0,0,1-.369.887.9.9,0,0,1-.961.066L8.571,13.6a.928.928,0,0,0-.411-.108H7.938a.666.666,0,0,0-.222.074L4.08,15.468a.959.959,0,0,1-.583.09.913.913,0,0,1-.731-1.044L3.5,10.475a.919.919,0,0,0-.262-.8L.27,6.8A.886.886,0,0,1,.049,5.87a.922.922,0,0,1,.73-.616l4.08-.592a.913.913,0,0,0,.722-.5L7.38.476A.854.854,0,0,1,7.544.255L7.618.2A.551.551,0,0,1,7.75.09L7.84.057,7.979,0h.346a.918.918,0,0,1,.722.493l1.822,3.67a.912.912,0,0,0,.681.5l4.08.592a.931.931,0,0,1,.747.616.892.892,0,0,1-.238.928Z" transform="translate(0 0)" fill="#ffab00"/>
</svg>

