<svg xmlns="http://www.w3.org/2000/svg" viewBox="0 0 26.997 21.935">
  <g id="brands-and-logotypes" transform="translate(256 208)">
    <path id="brands-and-logotypes-2" data-name="brands-and-logotypes" d="M27,2.6a11.539,11.539,0,0,1-3.189.874A5.5,5.5,0,0,0,26.243.412a11.061,11.061,0,0,1-3.51,1.34,5.534,5.534,0,0,0-9.574,3.785A5.7,5.7,0,0,0,13.288,6.8,15.666,15.666,0,0,1,1.88,1.009a5.536,5.536,0,0,0,1.7,7.4,5.466,5.466,0,0,1-2.5-.682v.061a5.56,5.56,0,0,0,4.434,5.438,5.524,5.524,0,0,1-1.451.182,4.894,4.894,0,0,1-1.048-.094,5.587,5.587,0,0,0,5.172,3.856,11.121,11.121,0,0,1-6.862,2.361A10.367,10.367,0,0,1,0,19.452a15.582,15.582,0,0,0,8.491,2.484A15.644,15.644,0,0,0,24.244,6.186c0-.245-.008-.481-.02-.715A11.041,11.041,0,0,0,27,2.6Z" transform="translate(-256 -208)" fill="#03a9f4"/>
  </g>
</svg>
