<svg xmlns="http://www.w3.org/2000/svg" xmlns:xlink="http://www.w3.org/1999/xlink" viewBox="0 0 622 152" class="w-full h-full"><polygon fill="#4f46e5" points="35.4,99.8 0,99.8 73.4,0 108.8,0 "></polygon> <polygon fill="#4f46e5" points="113.5,152 78,151.9 151.4,52.2 186.8,52.2 "></polygon> <polygon fill="#4f46e5" points="117.8,66.8 82.4,66.8 131.6,0 166.9,0.1 "></polygon> <polygon fill="#4f46e5" points="55.3,152 19.9,152 68.9,85.2 104.3,85.3 "></polygon> <path fill="#4f46e5" d="M207.4,20.5h13.8v41.1h12.1V20.5h13.8v95.8h-13.8V75.2h-12.1v41.1h-13.8V20.5z"></path> <path fill="#4f46e5" d="M295.5,20.5v13.6h-12.9v82.2h-13.8V34.1h-12.9V20.5H295.5z"></path> <path fill="#4f46e5" d="M334.4,86.1l16.1-65.6h13.8v95.8h-13.2V62.5l-11.8,53.8h-9.4l-12.2-53.8v53.8h-13.4V20.5h13.8L334.4,86.1z"></path> <path fill="#4f46e5" d="M377,116.3V20.5h13.8v82.2h22v13.6C412.8,116.3,377,116.3,377,116.3z"></path> <path fill="#4f46e5" d="M450.7,38V20.5h13.8V38h9.9v12.3h-9.9v66h-13.8v-66h-9.9V38H450.7z"></path> <path fill="#4f46e5" d="M521,116.3h-9.7l-3.2-7.7c-2.1,5.8-5.8,8.8-11,9.2c-10.5,0-15.8-6.8-15.8-20.2v-6.3c0-13.4,5.1-20.1,15.2-20.2  c4.4,0,8,1,10.7,3.1v-17c0-4.3-2-6.5-6-6.5h-0.1c-3.6,0-5.5,2.2-5.5,6.5v2.6h-13.8v-2.6c0-13.4,6.4-20.1,19.3-20.1  c13.2,0,19.8,6.7,19.8,20.1L521,116.3L521,116.3z M495.2,97.7c0,4.3,2,6.5,6.1,6.5c4,0,6-2.2,6-6.5v-6.3c0-4.3-2-6.4-6-6.4  s-6.1,2.2-6.1,6.5V97.7z"></path> <path fill="#4f46e5" d="M558.5,105c8.6,2.1,12.9,8.6,12.9,19.4v3.1c0,13.4-6.6,20.1-19.9,20.2c-13.2,0-19.8-6.7-19.8-20.2v-3.1  c0-10.8,4.3-17.3,12.9-19.4v-4.9c-8.6-2.1-12.9-8.6-12.9-19.4V57.2c0-11.9,5.2-18.6,15.7-19.9l1.2-6.3h9.7v6.8  c8.7,2.1,13,8.5,13,19.4v23.5c0,10.8-4.3,17.3-12.9,19.4L558.5,105L558.5,105z M545.6,80.6c0,4.3,2,6.5,6,6.5s6.1-2.2,6.1-6.5V57.2  c0-4.3-2-6.5-6-6.5h-0.1c-4,0-6,2.2-6,6.5V80.6z M545.6,127.5c0,4.3,2,6.5,6,6.5s6.1-2.2,6.1-6.5v-3.1c0-4.3-2-6.5-6-6.5h-0.1  c-4,0-6,2.2-6,6.5V127.5z"></path> <path fill="#4f46e5" d="M596,91.4v6.3c0,4.3,2,6.5,6,6.5h0.1c4,0,6-2.2,6-6.5v-0.8c0-4.3-4.3-9.5-12.9-15.7  c-8.6-6.2-12.9-13.5-12.9-22.1v-2c0-13.4,6.6-20.2,19.8-20.2S622,43.7,622,57.1v6.3h-13.8v-6.3c0-4.3-2-6.5-6.1-6.5  c-4,0-6,2.2-6,6.5v0.8c0,4.6,4.3,10,12.9,16.2c8.6,6.2,12.9,13.6,12.9,22.5v1.1c0,13.4-6.6,20.1-19.8,20.1s-19.9-6.7-19.9-20.1v-6.3  H596z"></path></svg>