<svg xmlns="http://www.w3.org/2000/svg" version="1.0" viewBox="0 0 1280.000000 803.000000" preserveAspectRatio="xMidYMid meet">
<g transform="translate(0.000000,803.000000) scale(0.100000,-0.100000)" fill="#000000" stroke="none">
<path d="M2138 7852 c-153 -154 -392 -363 -622 -545 -34 -26 -74 -60 -91 -76 -16 -16 -100 -85 -185 -154 -85 -70 -166 -136 -180 -149 -65 -59 -348 -293 -372 -307 -16 -9 -28 -19 -28 -23 0 -3 -144 -126 -320 -273 l-320 -267 2 -161 3 -161 357 -316 c196 -173 385 -340 420 -371 213 -190 528 -469 562 -499 23 -19 585 -516 1251 -1104 665 -589 1289 -1139 1385 -1224 96 -84 674 -613 1283 -1175 610 -562 1113 -1024 1118 -1025 5 -2 31 15 57 39 26 24 508 468 1071 987 562 519 1235 1132 1495 1361 259 228 1214 1072 2121 1875 l1650 1459 0 157 0 156 -965 803 c-810 674 -995 833 -1150 987 l-185 184 -4091 0 -4090 0 -176 -178z"/>
</g>
</svg>