<svg id="Group_151" data-name="Group 151" xmlns="http://www.w3.org/2000/svg" viewBox="0 0 11.363 10.889">
  <g id="github" transform="translate(0 0)">
    <path id="github-2" data-name="github" d="M5.681,0A5.632,5.632,0,0,0,0,5.583a5.592,5.592,0,0,0,3.885,5.3c.284.053.388-.12.388-.268,0-.133,0-.484-.007-.949-1.58.337-1.914-.749-1.914-.749A1.488,1.488,0,0,0,1.72,8.1c-.515-.346.04-.339.04-.339a1.189,1.189,0,0,1,.87.575A1.223,1.223,0,0,0,4.285,8.8a1.182,1.182,0,0,1,.36-.747c-1.262-.14-2.588-.62-2.588-2.759a2.133,2.133,0,0,1,.585-1.5,1.953,1.953,0,0,1,.05-1.478s.476-.15,1.562.572a5.447,5.447,0,0,1,2.841,0c1.079-.722,1.555-.572,1.555-.572a2.007,2.007,0,0,1,.057,1.478,2.142,2.142,0,0,1,.582,1.5c0,2.145-1.328,2.617-2.592,2.754A1.325,1.325,0,0,1,7.08,9.079c0,.747-.007,1.347-.007,1.529,0,.146.1.321.391.265a5.575,5.575,0,0,0,3.9-5.29A5.633,5.633,0,0,0,5.681,0Z" fill="#394858"/>
  </g>
</svg>
