<svg id="instagram-sketched" xmlns="http://www.w3.org/2000/svg" viewBox="0 0 9.776 9.776">
  <g id="instagram-sketched-2" data-name="instagram-sketched" transform="translate(0 0)">
    <path id="Path_32" data-name="Path 32" d="M8.354,5.838a2.508,2.508,0,1,0,2.508,2.508A2.508,2.508,0,0,0,8.354,5.838Zm0,4.136A1.628,1.628,0,1,1,9.982,8.346,1.628,1.628,0,0,1,8.354,9.974Z" transform="translate(-3.465 -3.46)" fill="#394858"/>
    <path id="Path_33" data-name="Path 33" d="M6.9.031c-.9-.042-3.127-.04-4.027,0A2.921,2.921,0,0,0,.825.822C-.115,1.762,0,3.029,0,4.887c0,1.9-.106,3.139.82,4.065.944.943,2.229.82,4.065.82a9.016,9.016,0,0,0,3.2-.257A2.675,2.675,0,0,0,9.745,6.9c.042-.9.04-3.127,0-4.027A2.694,2.694,0,0,0,6.9.031Zm1.424,8.3c-.616.616-1.471.561-3.449.561-2.037,0-2.853.03-3.449-.567C.742,7.64.866,6.543.866,4.88.866,2.63.635,1.009,2.894.893,3.413.875,3.566.869,4.872.869L4.89.881c2.171,0,3.874-.227,3.976,2.031.023.515.029.67.029,1.974,0,2.013.038,2.835-.568,3.443Z" transform="translate(0 -0.001)" fill="#394858"/>
    <circle id="Ellipse_13" data-name="Ellipse 13" cx="0.586" cy="0.586" r="0.586" transform="translate(6.911 1.693)" fill="#394858"/>
  </g>
</svg>
