<svg id="brands-and-logotypes" xmlns="http://www.w3.org/2000/svg" viewBox="0 0 11.487 9.333">
  <path id="brands-and-logotypes-2" data-name="brands-and-logotypes" d="M11.487,1.1a4.91,4.91,0,0,1-1.357.372,2.342,2.342,0,0,0,1.036-1.3,4.706,4.706,0,0,1-1.493.57A2.355,2.355,0,0,0,5.6,2.356a2.425,2.425,0,0,0,.055.537A6.666,6.666,0,0,1,.8.429a2.356,2.356,0,0,0,.724,3.147,2.326,2.326,0,0,1-1.064-.29v.026A2.366,2.366,0,0,0,2.346,5.627a2.35,2.35,0,0,1-.617.078,2.082,2.082,0,0,1-.446-.04A2.377,2.377,0,0,0,3.483,7.3a4.732,4.732,0,0,1-2.92,1A4.411,4.411,0,0,1,0,8.277,6.63,6.63,0,0,0,3.613,9.333a6.657,6.657,0,0,0,6.7-6.7c0-.1,0-.2-.009-.3A4.7,4.7,0,0,0,11.487,1.1Z" transform="translate(0 0)" fill="#394858"/>
</svg>
